<?xml version="1.0" standalone="no"?>
<!DOCTYPE svg PUBLIC "-//W3C//DTD SVG 20010904//EN"
 "http://www.w3.org/TR/2001/REC-SVG-20010904/DTD/svg10.dtd">
<svg version="1.0" xmlns="http://www.w3.org/2000/svg"
 width="399.000000pt" height="361.000000pt" viewBox="0 0 399.000000 361.000000"
 preserveAspectRatio="xMidYMid meet">

<g transform="translate(0.000000,361.000000) scale(0.100000,-0.100000)"
fill="#000000" stroke="none">
<path d="M1845 3365 c-240 -53 -459 -224 -570 -445 -100 -199 -120 -423 -55
-633 l21 -67 39 0 c43 0 46 4 29 47 -6 15 -15 42 -19 60 -7 29 -5 31 23 37 54
11 63 7 102 -49 57 -84 78 -95 173 -95 78 0 81 1 130 40 28 21 53 43 56 49 4
5 31 -5 63 -24 100 -61 129 -65 447 -65 l286 0 9 23 c5 13 12 49 16 81 7 51
13 64 52 105 25 25 56 65 70 89 26 45 33 48 64 32 15 -8 19 -21 19 -59 0 -42
-35 -203 -55 -253 -6 -15 -1 -18 29 -18 43 0 49 10 77 127 74 312 -45 655
-295 851 -105 83 -219 137 -344 166 -86 19 -281 20 -367 1z m305 -65 c30 -6
55 -12 57 -14 2 -2 0 -19 -4 -37 -9 -33 -11 -34 -85 -45 -42 -7 -102 -23 -132
-37 -53 -24 -61 -25 -186 -20 l-130 6 0 33 c0 29 5 36 38 53 41 21 159 57 207
64 61 8 184 7 235 -3z m217 -71 c98 -47 181 -112 252 -194 49 -58 66 -105 41
-120 -6 -3 -36 10 -69 30 -32 20 -86 45 -120 55 -52 17 -72 30 -139 98 -43 44
-88 83 -101 87 -20 6 -22 11 -16 43 4 20 9 41 12 45 8 13 51 0 140 -44z m-486
-105 l36 -6 7 -82 c3 -44 8 -94 11 -111 6 -32 8 -29 -173 -218 l-66 -69 -75
11 c-42 7 -94 13 -116 14 -38 2 -40 4 -47 42 -4 22 -7 82 -7 133 l-1 92 103
100 102 99 95 1 c52 0 111 -3 131 -6z m606 -148 c28 -10 78 -34 111 -55 52
-34 62 -46 84 -102 14 -35 33 -99 43 -141 l17 -77 -27 -49 c-15 -27 -47 -72
-71 -100 l-44 -50 -77 33 c-42 19 -94 37 -114 40 -36 6 -38 9 -44 53 -9 70
-33 140 -70 208 l-33 62 52 53 c28 30 62 76 74 102 13 28 28 47 35 44 7 -2 35
-12 64 -21z m-1057 -128 c0 -40 4 -99 9 -130 9 -53 8 -61 -16 -104 -28 -50
-53 -139 -53 -191 0 -30 -2 -32 -45 -39 -25 -3 -48 -4 -51 -1 -3 3 -8 56 -11
119 -4 94 -2 128 16 203 23 94 63 194 84 207 7 4 24 8 40 8 27 0 27 0 27 -72z
m606 3 c43 -16 105 -35 137 -42 45 -10 64 -20 82 -43 38 -50 73 -134 86 -207
l12 -68 -117 -123 c-65 -68 -123 -126 -130 -130 -24 -13 -159 12 -220 41 -99
48 -102 52 -146 201 l-39 135 57 60 c82 87 196 205 197 205 1 0 37 -13 81 -29z"/>
<path d="M1168 3056 c-69 -30 -148 -66 -175 -81 -209 -119 -205 -116 -199
-144 11 -48 19 -465 9 -501 l-9 -34 -140 -36 -139 -35 214 -3 c118 -1 217 0
220 4 3 3 8 130 11 282 l5 277 100 51 c55 29 104 56 108 61 4 4 27 42 50 83
24 41 51 87 61 103 10 15 17 27 15 27 -2 0 -61 -25 -131 -54z"/>
<path d="M2789 3069 c12 -19 38 -66 58 -104 l35 -70 107 -55 106 -55 1 -257
c1 -142 5 -269 8 -283 l6 -25 215 0 c118 0 215 2 215 4 0 2 -60 18 -132 36
-77 19 -139 39 -146 49 -11 13 -13 64 -8 256 3 132 8 251 11 265 6 23 -1 29
-82 77 -134 78 -311 163 -392 188 l-25 7 23 -33z"/>
<path d="M1062 2668 c4 -44 43 -53 58 -13 15 40 13 45 -26 45 -34 0 -35 -1
-32 -32z"/>
<path d="M2939 2668 c6 -27 12 -33 31 -33 21 0 26 5 28 33 3 30 2 32 -31 32
-34 0 -34 -1 -28 -32z"/>
<path d="M1064 2416 c-13 -33 0 -51 40 -54 33 -3 38 -1 32 13 -3 9 -6 25 -6
36 0 15 -7 19 -30 19 -17 0 -33 -6 -36 -14z"/>
<path d="M2928 2395 c-4 -36 -4 -36 31 -33 33 3 36 6 39 36 3 30 2 32 -31 32
-32 0 -35 -2 -39 -35z"/>
<path d="M1580 2111 c-105 -22 -115 -47 -115 -291 0 -170 2 -199 18 -228 24
-43 70 -62 151 -62 89 0 96 4 96 54 l0 41 -66 0 c-93 0 -94 2 -94 197 0 191 3
198 100 198 l60 0 0 39 c0 22 -3 42 -7 44 -17 10 -110 15 -143 8z"/>
<path d="M1913 2109 c-78 -18 -113 -94 -99 -212 9 -77 30 -99 116 -118 40 -9
76 -23 81 -30 5 -8 9 -33 9 -56 0 -63 -28 -78 -125 -70 l-75 7 0 -45 c0 -42 1
-44 35 -51 19 -3 72 -4 119 -3 72 3 88 7 109 27 57 54 63 236 9 285 -10 9 -49
23 -86 31 -38 8 -72 20 -77 28 -15 23 -10 86 8 103 13 14 32 16 95 13 l78 -3
0 41 c0 35 -4 43 -22 47 -52 12 -136 15 -175 6z"/>
<path d="M2761 2110 c-50 -11 -66 -22 -89 -64 -14 -26 -17 -62 -17 -226 0
-221 7 -250 70 -276 44 -18 166 -18 209 0 60 25 70 64 70 276 0 206 -9 247
-61 273 -37 20 -127 28 -182 17z m120 -107 c11 -12 14 -57 14 -185 0 -156 -2
-171 -19 -184 -11 -8 -32 -14 -46 -14 -14 0 -35 6 -46 14 -17 13 -19 28 -19
184 0 191 4 202 65 202 23 0 43 -7 51 -17z"/>
<path d="M232 1823 l3 -288 53 -3 52 -3 0 120 0 121 65 0 65 0 0 -121 0 -120
53 3 52 3 3 288 2 287 -55 0 -54 0 -3 -117 -3 -118 -60 0 -60 0 -3 118 -3 117
-54 0 -55 0 2 -287z"/>
<path d="M670 2061 l0 -50 53 -3 52 -3 3 -238 2 -238 53 3 52 3 3 238 2 237
55 0 55 0 0 50 0 50 -165 0 -165 0 0 -49z"/>
<path d="M1050 2060 l0 -50 55 0 55 0 0 -241 0 -240 53 3 52 3 3 238 2 237 55
0 55 0 0 50 0 50 -165 0 -165 0 0 -50z"/>
<path d="M2230 1821 l0 -291 55 0 55 0 0 95 0 95 60 0 c129 0 160 37 160 193
0 174 -17 190 -202 195 l-128 4 0 -291z m215 166 c3 -12 5 -54 3 -92 l-3 -70
-52 -3 -53 -3 0 95 0 96 50 0 c43 0 50 -3 55 -23z"/>
<path d="M3120 1820 l0 -290 55 0 54 0 3 103 c3 99 4 102 27 105 13 2 28 -1
33 -6 5 -5 22 -52 37 -103 l27 -94 57 -3 c31 -2 57 -2 57 0 0 2 -16 52 -35
112 l-35 110 20 21 c31 33 46 132 33 211 -19 108 -47 124 -218 124 l-115 0 0
-290z m221 163 c14 -37 6 -132 -12 -144 -8 -5 -33 -9 -56 -9 l-43 0 0 90 0 90
50 0 c46 0 51 -3 61 -27z"/>
<path d="M3530 2060 l0 -50 55 0 55 0 2 -237 3 -238 53 -3 52 -3 0 240 0 241
55 0 55 0 0 50 0 50 -165 0 -165 0 0 -50z"/>
<path d="M560 1342 l154 -57 13 -90 c45 -315 192 -465 769 -781 271 -148 426
-247 501 -317 l32 -30 38 34 c86 77 233 169 558 349 318 175 541 344 613 463
45 75 80 178 95 284 l12 88 125 46 c68 26 136 51 150 57 17 7 -488 10 -1595
10 l-1620 1 155 -57z m2630 -38 c0 -48 -22 -166 -41 -223 -40 -115 -116 -194
-319 -331 -81 -54 -153 -96 -470 -273 -75 -42 -177 -103 -228 -136 -51 -34
-97 -61 -102 -61 -5 0 -53 29 -107 63 -54 35 -200 121 -325 190 -598 332 -698
432 -724 723 l-7 74 1162 0 1161 0 0 -26z"/>
<path d="M1420 1105 c0 -78 3 -95 15 -95 11 0 15 11 15 39 0 33 4 40 22 43 32
5 35 28 4 28 -21 0 -26 5 -26 25 0 21 5 25 30 25 20 0 30 5 30 15 0 11 -12 15
-45 15 l-45 0 0 -95z"/>
<path d="M1591 1186 c-7 -9 -11 -42 -9 -87 3 -80 16 -97 61 -85 27 6 27 8 27
90 0 67 -3 85 -16 90 -26 10 -51 7 -63 -8z m54 -81 c0 -49 -3 -60 -17 -63 -16
-3 -18 5 -18 63 0 58 2 66 18 63 14 -3 17 -14 17 -63z"/>
<path d="M1751 1186 c-7 -9 -11 -42 -9 -87 3 -80 16 -97 61 -85 27 6 27 8 27
90 0 67 -3 85 -16 90 -26 10 -51 7 -63 -8z m57 -78 c-2 -50 -6 -63 -20 -66
-16 -3 -18 5 -18 62 0 60 2 66 20 66 19 0 21 -5 18 -62z"/>
<path d="M1900 1185 c0 -8 7 -15 15 -15 12 0 15 -16 15 -80 0 -64 3 -80 15
-80 12 0 15 15 15 79 0 62 3 80 16 85 27 10 5 26 -37 26 -28 0 -39 -4 -39 -15z"/>
<path d="M2050 1105 l0 -95 33 0 c51 0 56 8 56 95 0 87 -5 95 -56 95 l-33 0 0
-95z m65 40 c0 -11 -8 -21 -17 -23 -14 -3 -18 3 -18 23 0 20 4 26 18 23 9 -2
17 -12 17 -23z m0 -80 c0 -11 -8 -21 -17 -23 -14 -3 -18 3 -18 23 0 20 4 26
18 23 9 -2 17 -12 17 -23z"/>
<path d="M2235 1123 c-9 -43 -19 -86 -22 -95 -3 -12 1 -18 11 -18 9 0 16 9 16
20 0 15 7 20 24 20 16 0 27 -7 31 -20 8 -25 25 -26 25 -2 -1 9 -9 51 -18 92
-12 52 -23 76 -34 78 -13 2 -20 -13 -33 -75z m45 -25 c0 -18 -5 -28 -15 -28
-17 0 -18 4 -9 50 8 37 24 22 24 -22z"/>
<path d="M2390 1105 l0 -95 45 0 c33 0 45 4 45 15 0 10 -10 15 -30 15 l-30 0
0 80 c0 64 -3 80 -15 80 -12 0 -15 -17 -15 -95z"/>
<path d="M2550 1106 l0 -96 45 0 c33 0 45 4 45 15 0 10 -10 15 -30 15 l-29 0
-3 77 c-2 50 -7 78 -15 81 -10 3 -13 -20 -13 -92z"/>
<path d="M2796 1162 c-5 -14 -16 -22 -29 -22 -20 -1 -20 -1 -4 -11 12 -7 16
-17 11 -31 -5 -17 -3 -18 14 -9 14 7 23 8 27 1 10 -16 25 -12 19 5 -4 8 -1 22
6 30 10 12 9 15 -4 15 -9 0 -20 10 -25 22 l-8 23 -7 -23z"/>
<path d="M1246 1155 c-3 -8 -13 -15 -23 -15 -13 0 -14 -3 -5 -12 7 -7 12 -19
12 -27 0 -11 10 -16 30 -16 24 0 30 4 30 22 0 12 6 24 13 26 6 3 2 6 -10 6
-13 1 -23 7 -23 16 0 8 -4 15 -9 15 -5 0 -11 -7 -15 -15z"/>
<path d="M1035 1123 c59 -142 205 -257 595 -471 190 -104 313 -182 363 -230
l37 -36 38 36 c49 48 174 127 366 232 356 196 494 298 567 422 16 27 29 53 29
57 0 5 -30 -21 -66 -57 -85 -84 -237 -185 -499 -331 -244 -136 -328 -189 -389
-245 l-44 -40 -33 31 c-56 52 -166 122 -385 245 -283 158 -423 251 -516 344
-65 65 -75 71 -63 43z"/>
<path d="M1763 963 c-9 -3 -13 -31 -13 -89 0 -82 0 -84 27 -90 14 -4 33 -2 42
3 22 14 27 53 7 53 -9 0 -16 -7 -16 -16 0 -9 -7 -14 -17 -12 -15 3 -18 14 -18
63 0 49 3 60 18 63 10 2 17 -3 17 -12 0 -9 7 -16 15 -16 18 0 20 31 3 48 -12
12 -43 15 -65 5z"/>
<path d="M1910 875 l0 -95 40 0 c29 0 40 4 40 15 0 10 -10 15 -30 15 l-30 0 0
80 c0 47 -4 80 -10 80 -6 0 -10 -38 -10 -95z"/>
<path d="M2070 881 c0 -81 2 -90 20 -96 11 -3 29 -3 40 0 18 6 20 15 20 96 0
53 -4 89 -10 89 -6 0 -10 -33 -10 -80 0 -73 -2 -80 -20 -80 -18 0 -20 7 -20
80 0 47 -4 80 -10 80 -6 0 -10 -36 -10 -89z"/>
<path d="M2230 966 c-3 -2 -4 -45 -2 -95 l3 -91 27 0 c47 0 52 9 49 100 l-2
85 -35 3 c-20 2 -38 1 -40 -2z m60 -51 c0 -18 -5 -25 -20 -25 -15 0 -20 7 -20
25 0 18 5 25 20 25 15 0 20 -7 20 -25z m0 -80 c0 -18 -5 -25 -20 -25 -15 0
-20 7 -20 25 0 18 5 25 20 25 15 0 20 -7 20 -25z"/>
</g>
</svg>
